<?xml version="1.0" encoding="UTF-8" standalone="no"?>
<!DOCTYPE svg PUBLIC "-//W3C//DTD SVG 1.1//EN"
 "http://www.w3.org/Graphics/SVG/1.1/DTD/svg11.dtd">
<!-- Generated by graphviz version 14.1.2 (20260124.0452)
 -->
<!-- Title: Pictionary Architecture (Detailed) Pages: 1 -->
<svg width="2199pt" height="1568pt"
 viewBox="0.00 0.00 2199.00 1568.00" xmlns="http://www.w3.org/2000/svg" xmlns:xlink="http://www.w3.org/1999/xlink">
<g id="graph0" class="graph" transform="scale(1 1) rotate(0) translate(14.4 1553.9)">
<title>Pictionary Architecture (Detailed)</title>
<polygon fill="white" stroke="none" points="-14.4,14.4 -14.4,-1553.9 2184.3,-1553.9 2184.3,14.4 -14.4,14.4"/>
<text xml:space="preserve" text-anchor="middle" x="86.75" y="-7.05" font-family="Helvetica,sans-Serif" font-size="11.00" fill="#2d3436">Pictionary Architecture (Detailed)</text>
<g id="clust1" class="cluster">
<title>cluster_Client Layer (Browser Tabs)</title>
<path fill="#e5f5fd" stroke="#aeb6be" d="M20,-29.5C20,-29.5 639.95,-29.5 639.95,-29.5 645.95,-29.5 651.95,-35.5 651.95,-41.5 651.95,-41.5 651.95,-600.5 651.95,-600.5 651.95,-606.5 645.95,-612.5 639.95,-612.5 639.95,-612.5 20,-612.5 20,-612.5 14,-612.5 8,-606.5 8,-600.5 8,-600.5 8,-41.5 8,-41.5 8,-35.5 14,-29.5 20,-29.5"/>
<text xml:space="preserve" text-anchor="middle" x="97.38" y="-597.1" font-family="Sans-Serif" font-size="12.00" fill="#2d3436">Client Layer (Browser Tabs)</text>
</g>
<g id="clust2" class="cluster">
<title>cluster_Frontend Hosting</title>
<path fill="#e5f5fd" stroke="#aeb6be" d="M287.6,-620.5C287.6,-620.5 639.95,-620.5 639.95,-620.5 645.95,-620.5 651.95,-626.5 651.95,-632.5 651.95,-632.5 651.95,-945.5 651.95,-945.5 651.95,-951.5 645.95,-957.5 639.95,-957.5 639.95,-957.5 287.6,-957.5 287.6,-957.5 281.6,-957.5 275.6,-951.5 275.6,-945.5 275.6,-945.5 275.6,-632.5 275.6,-632.5 275.6,-626.5 281.6,-620.5 287.6,-620.5"/>
<text xml:space="preserve" text-anchor="middle" x="334.23" y="-942.1" font-family="Sans-Serif" font-size="12.00" fill="#2d3436">Frontend Hosting</text>
</g>
<g id="clust3" class="cluster">
<title>cluster_Backend (Node + Socket.IO)</title>
<path fill="#e5f5fd" stroke="#aeb6be" d="M287.6,-965.5C287.6,-965.5 1745.3,-965.5 1745.3,-965.5 1751.3,-965.5 1757.3,-971.5 1757.3,-977.5 1757.3,-977.5 1757.3,-1519.5 1757.3,-1519.5 1757.3,-1525.5 1751.3,-1531.5 1745.3,-1531.5 1745.3,-1531.5 287.6,-1531.5 287.6,-1531.5 281.6,-1531.5 275.6,-1525.5 275.6,-1519.5 275.6,-1519.5 275.6,-977.5 275.6,-977.5 275.6,-971.5 281.6,-965.5 287.6,-965.5"/>
<text xml:space="preserve" text-anchor="middle" x="369.1" y="-1516.1" font-family="Sans-Serif" font-size="12.00" fill="#2d3436">Backend (Node + Socket.IO)</text>
</g>
<g id="clust4" class="cluster">
<title>cluster_Realtime Core</title>
<path fill="#ebf3e7" stroke="#aeb6be" d="M1249.05,-973.5C1249.05,-973.5 1475.65,-973.5 1475.65,-973.5 1481.65,-973.5 1487.65,-979.5 1487.65,-985.5 1487.65,-985.5 1487.65,-1489.5 1487.65,-1489.5 1487.65,-1495.5 1481.65,-1501.5 1475.65,-1501.5 1475.65,-1501.5 1249.05,-1501.5 1249.05,-1501.5 1243.05,-1501.5 1237.05,-1495.5 1237.05,-1489.5 1237.05,-1489.5 1237.05,-985.5 1237.05,-985.5 1237.05,-979.5 1243.05,-973.5 1249.05,-973.5"/>
<text xml:space="preserve" text-anchor="middle" x="1287.05" y="-1486.1" font-family="Sans-Serif" font-size="12.00" fill="#2d3436">Realtime Core</text>
</g>
<g id="clust5" class="cluster">
<title>cluster_Services</title>
<path fill="#ebf3e7" stroke="#aeb6be" d="M1644.5,-998.5C1644.5,-998.5 1737.3,-998.5 1737.3,-998.5 1743.3,-998.5 1749.3,-1004.5 1749.3,-1010.5 1749.3,-1010.5 1749.3,-1323.5 1749.3,-1323.5 1749.3,-1329.5 1743.3,-1335.5 1737.3,-1335.5 1737.3,-1335.5 1644.5,-1335.5 1644.5,-1335.5 1638.5,-1335.5 1632.5,-1329.5 1632.5,-1323.5 1632.5,-1323.5 1632.5,-1010.5 1632.5,-1010.5 1632.5,-1004.5 1638.5,-998.5 1644.5,-998.5"/>
<text xml:space="preserve" text-anchor="middle" x="1665.63" y="-1320.1" font-family="Sans-Serif" font-size="12.00" fill="#2d3436">Services</text>
</g>
<g id="clust6" class="cluster">
<title>cluster_Data Layer</title>
<path fill="#e5f5fd" stroke="#aeb6be" d="M1923.3,-1072.5C1923.3,-1072.5 2149.9,-1072.5 2149.9,-1072.5 2155.9,-1072.5 2161.9,-1078.5 2161.9,-1084.5 2161.9,-1084.5 2161.9,-1425.5 2161.9,-1425.5 2161.9,-1431.5 2155.9,-1437.5 2149.9,-1437.5 2149.9,-1437.5 1923.3,-1437.5 1923.3,-1437.5 1917.3,-1437.5 1911.3,-1431.5 1911.3,-1425.5 1911.3,-1425.5 1911.3,-1084.5 1911.3,-1084.5 1911.3,-1078.5 1917.3,-1072.5 1923.3,-1072.5"/>
<text xml:space="preserve" text-anchor="middle" x="1952.3" y="-1422.1" font-family="Sans-Serif" font-size="12.00" fill="#2d3436">Data Layer</text>
</g>
<!-- 65d24258b2e74332b29007a6af97b367 -->
<g id="node1" class="node">
<title>65d24258b2e74332b29007a6af97b367</title>
<image xlink:href="C:\Users\spexcher\AppData\Local\Programs\Python\Python314\Lib\site-packages\resources/onprem/client\users.png" width="100.8px" height="100.8px" preserveAspectRatio="xMinYMin meet" x="16" y="-278.9"/>
<text xml:space="preserve" text-anchor="middle" x="66.4" y="-163.35" font-family="Sans-Serif" font-size="10.00" fill="#2d3436">Host + Guessers</text>
</g>
<!-- 9e61c1a27e70416e9426263eb4e91ed6 -->
<g id="node2" class="node">
<title>9e61c1a27e70416e9426263eb4e91ed6</title>
<image xlink:href="C:\Users\spexcher\AppData\Local\Programs\Python\Python314\Lib\site-packages\resources/programming/language\typescript.png" width="100.8px" height="100.8px" preserveAspectRatio="xMinYMin meet" x="149.8" y="-278.9"/>
<text xml:space="preserve" text-anchor="middle" x="200.2" y="-161.7" font-family="Sans-Serif" font-size="10.00" fill="#2d3436">UIController</text>
<text xml:space="preserve" text-anchor="middle" x="200.2" y="-148.95" font-family="Sans-Serif" font-size="10.00" fill="#2d3436">screen/forms/theme/scores</text>
</g>
<!-- 65d24258b2e74332b29007a6af97b367&#45;&gt;9e61c1a27e70416e9426263eb4e91ed6 -->
<g id="edge1" class="edge">
<title>65d24258b2e74332b29007a6af97b367&#45;&gt;9e61c1a27e70416e9426263eb4e91ed6</title>
<path fill="none" stroke="#7b8894" d="M116.6,-228.5C116.6,-228.5 138.65,-228.5 138.65,-228.5"/>
<polygon fill="#7b8894" stroke="#7b8894" points="138.65,-232 148.65,-228.5 138.65,-225 138.65,-232"/>
</g>
<!-- 450ebdf412634228a83f9f064fc88400 -->
<g id="node3" class="node">
<title>450ebdf412634228a83f9f064fc88400</title>
<image xlink:href="C:\Users\spexcher\AppData\Local\Programs\Python\Python314\Lib\site-packages\resources/onprem/compute\server.png" width="100.8px" height="100.8px" preserveAspectRatio="xMinYMin meet" x="283.6" y="-155.9"/>
<text xml:space="preserve" text-anchor="middle" x="334" y="-40.35" font-family="Sans-Serif" font-size="10.00" fill="#2d3436">index.html + styles.css</text>
</g>
<!-- 9e61c1a27e70416e9426263eb4e91ed6&#45;&gt;450ebdf412634228a83f9f064fc88400 -->
<g id="edge2" class="edge">
<title>9e61c1a27e70416e9426263eb4e91ed6&#45;&gt;450ebdf412634228a83f9f064fc88400</title>
<path fill="none" stroke="#7b8894" d="M250.4,-159.8C250.4,-159.8 272.45,-159.8 272.45,-159.8"/>
<polygon fill="#7b8894" stroke="#7b8894" points="272.45,-163.3 282.45,-159.8 272.45,-156.3 272.45,-163.3"/>
</g>
<!-- 9812c6e3c436407db456f541c891f1d6 -->
<g id="node4" class="node">
<title>9812c6e3c436407db456f541c891f1d6</title>
<image xlink:href="C:\Users\spexcher\AppData\Local\Programs\Python\Python314\Lib\site-packages\resources/programming/language\typescript.png" width="100.8px" height="100.8px" preserveAspectRatio="xMinYMin meet" x="543.15" y="-549.9"/>
<text xml:space="preserve" text-anchor="middle" x="593.55" y="-432.7" font-family="Sans-Serif" font-size="10.00" fill="#2d3436">GameClient</text>
<text xml:space="preserve" text-anchor="middle" x="593.55" y="-419.95" font-family="Sans-Serif" font-size="10.00" fill="#2d3436">socket events + room sync</text>
</g>
<!-- 9e61c1a27e70416e9426263eb4e91ed6&#45;&gt;9812c6e3c436407db456f541c891f1d6 -->
<g id="edge3" class="edge">
<title>9e61c1a27e70416e9426263eb4e91ed6&#45;&gt;9812c6e3c436407db456f541c891f1d6</title>
<path fill="none" stroke="#7b8894" d="M250.44,-199.8C359.84,-199.8 609.9,-199.8 609.9,-199.8 609.9,-199.8 609.9,-405.3 609.9,-405.3"/>
<polygon fill="#7b8894" stroke="#7b8894" points="606.4,-405.3 609.9,-415.3 613.4,-405.3 606.4,-405.3"/>
</g>
<!-- ee3a40f4e7544d4db31854c221967835 -->
<g id="node5" class="node">
<title>ee3a40f4e7544d4db31854c221967835</title>
<image xlink:href="C:\Users\spexcher\AppData\Local\Programs\Python\Python314\Lib\site-packages\resources/programming/language\typescript.png" width="100.8px" height="100.8px" preserveAspectRatio="xMinYMin meet" x="283.6" y="-358.9"/>
<text xml:space="preserve" text-anchor="middle" x="334" y="-241.7" font-family="Sans-Serif" font-size="10.00" fill="#2d3436">DrawingCanvas</text>
<text xml:space="preserve" text-anchor="middle" x="334" y="-228.95" font-family="Sans-Serif" font-size="10.00" fill="#2d3436">strokes + snapshot sync</text>
</g>
<!-- 9e61c1a27e70416e9426263eb4e91ed6&#45;&gt;ee3a40f4e7544d4db31854c221967835 -->
<g id="edge4" class="edge">
<title>9e61c1a27e70416e9426263eb4e91ed6&#45;&gt;ee3a40f4e7544d4db31854c221967835</title>
<path fill="none" stroke="#7b8894" d="M250.4,-268.5C250.4,-268.5 272.45,-268.5 272.45,-268.5"/>
<polygon fill="#7b8894" stroke="#7b8894" points="272.45,-272 282.45,-268.5 272.45,-265 272.45,-272"/>
</g>
<!-- 4ded1ec4af5d4cdbb15b50758f0f7db3 -->
<g id="node6" class="node">
<title>4ded1ec4af5d4cdbb15b50758f0f7db3</title>
<image xlink:href="C:\Users\spexcher\AppData\Local\Programs\Python\Python314\Lib\site-packages\resources/onprem/compute\server.png" width="100.8px" height="100.8px" preserveAspectRatio="xMinYMin meet" x="283.6" y="-549.9"/>
<text xml:space="preserve" text-anchor="middle" x="334" y="-432.7" font-family="Sans-Serif" font-size="10.00" fill="#2d3436">sessionStorage/localStorage</text>
<text xml:space="preserve" text-anchor="middle" x="334" y="-419.95" font-family="Sans-Serif" font-size="10.00" fill="#2d3436">playerName/theme/sessionToken</text>
</g>
<!-- 9e61c1a27e70416e9426263eb4e91ed6&#45;&gt;4ded1ec4af5d4cdbb15b50758f0f7db3 -->
<g id="edge5" class="edge">
<title>9e61c1a27e70416e9426263eb4e91ed6&#45;&gt;4ded1ec4af5d4cdbb15b50758f0f7db3</title>
<path fill="none" stroke="#7b8894" d="M199.9,-311.28C199.9,-390.98 199.9,-499.5 199.9,-499.5 199.9,-499.5 272.17,-499.5 272.17,-499.5"/>
<polygon fill="#7b8894" stroke="#7b8894" points="272.17,-503 282.17,-499.5 272.17,-496 272.17,-503"/>
</g>
<!-- f5128d6ad53c4ec1afbf159225947a5d -->
<g id="node7" class="node">
<title>f5128d6ad53c4ec1afbf159225947a5d</title>
<image xlink:href="C:\Users\spexcher\AppData\Local\Programs\Python\Python314\Lib\site-packages\resources/onprem/network\nginx.png" width="100.8px" height="100.8px" preserveAspectRatio="xMinYMin meet" x="283.6" y="-746.9"/>
<text xml:space="preserve" text-anchor="middle" x="334" y="-631.35" font-family="Sans-Serif" font-size="10.00" fill="#2d3436">Webpack Dev Server :8087</text>
</g>
<!-- 9812c6e3c436407db456f541c891f1d6&#45;&gt;f5128d6ad53c4ec1afbf159225947a5d -->
<g id="edge20" class="edge">
<title>9812c6e3c436407db456f541c891f1d6&#45;&gt;f5128d6ad53c4ec1afbf159225947a5d</title>
<path fill="none" stroke="#7b8894" stroke-dasharray="5,2" d="M593.9,-581.84C593.9,-621.42 593.9,-660.4 593.9,-660.4 593.9,-660.4 395.62,-660.4 395.62,-660.4"/>
<polygon fill="#7b8894" stroke="#7b8894" points="395.62,-656.9 385.62,-660.4 395.62,-663.9 395.62,-656.9"/>
<text xml:space="preserve" text-anchor="middle" x="463.78" y="-590.65" font-family="Sans-Serif" font-size="13.00" fill="#2d3436">HTTP + WS</text>
</g>
<!-- 9cae9995d4164a00b07a7b6288d66d59 -->
<g id="node15" class="node">
<title>9cae9995d4164a00b07a7b6288d66d59</title>
<image xlink:href="C:\Users\spexcher\AppData\Local\Programs\Python\Python314\Lib\site-packages\resources/programming/language\nodejs.png" width="100.8px" height="100.8px" preserveAspectRatio="xMinYMin meet" x="977.45" y="-1091.9"/>
<text xml:space="preserve" text-anchor="middle" x="1027.85" y="-976.35" font-family="Sans-Serif" font-size="10.00" fill="#2d3436">Socket.IO Gateway</text>
</g>
<!-- 9812c6e3c436407db456f541c891f1d6&#45;&gt;9cae9995d4164a00b07a7b6288d66d59 -->
<g id="edge18" class="edge">
<title>9812c6e3c436407db456f541c891f1d6&#45;&gt;9cae9995d4164a00b07a7b6288d66d59</title>
<path fill="none" stroke="darkgreen" stroke-width="2" d="M643.89,-527.1C754.89,-527.1 1010.9,-527.1 1010.9,-527.1 1010.9,-527.1 1010.9,-960.16 1010.9,-960.16"/>
<polygon fill="darkgreen" stroke="darkgreen" stroke-width="2" points="1007.4,-960.16 1010.9,-970.16 1014.4,-960.16 1007.4,-960.16"/>
<text xml:space="preserve" text-anchor="middle" x="810.7" y="-747.65" font-family="Sans-Serif" font-size="13.00" fill="#2d3436">WebSocket</text>
<text xml:space="preserve" text-anchor="middle" x="810.7" y="-731.15" font-family="Sans-Serif" font-size="13.00" fill="#2d3436">createRoom/joinRoom/startGame</text>
<text xml:space="preserve" text-anchor="middle" x="810.7" y="-714.65" font-family="Sans-Serif" font-size="13.00" fill="#2d3436">drawCommand/makeGuess/playerReconnect</text>
</g>
<!-- ee3a40f4e7544d4db31854c221967835&#45;&gt;9812c6e3c436407db456f541c891f1d6 -->
<g id="edge6" class="edge">
<title>ee3a40f4e7544d4db31854c221967835&#45;&gt;9812c6e3c436407db456f541c891f1d6</title>
<path fill="none" stroke="blue" d="M384.33,-308.5C455.48,-308.5 576.9,-308.5 576.9,-308.5 576.9,-308.5 576.9,-405.32 576.9,-405.32"/>
<polygon fill="blue" stroke="blue" points="573.4,-405.32 576.9,-415.32 580.4,-405.32 573.4,-405.32"/>
<text xml:space="preserve" text-anchor="middle" x="463.78" y="-424.15" font-family="Sans-Serif" font-size="13.00" fill="#2d3436">drawCommand</text>
<text xml:space="preserve" text-anchor="middle" x="463.78" y="-407.65" font-family="Sans-Serif" font-size="13.00" fill="#2d3436">(snapshot fallback)</text>
</g>
<!-- 5abfb5ba124c49e6a90728993e971672 -->
<g id="node8" class="node">
<title>5abfb5ba124c49e6a90728993e971672</title>
<image xlink:href="C:\Users\spexcher\AppData\Local\Programs\Python\Python314\Lib\site-packages\resources/onprem/network\nginx.png" width="100.8px" height="100.8px" preserveAspectRatio="xMinYMin meet" x="543.15" y="-825.9"/>
<text xml:space="preserve" text-anchor="middle" x="593.55" y="-708.7" font-family="Sans-Serif" font-size="10.00" fill="#2d3436">Proxy</text>
<text xml:space="preserve" text-anchor="middle" x="593.55" y="-695.95" font-family="Sans-Serif" font-size="10.00" fill="#2d3436">/socket.io + /api</text>
</g>
<!-- f5128d6ad53c4ec1afbf159225947a5d&#45;&gt;5abfb5ba124c49e6a90728993e971672 -->
<g id="edge7" class="edge">
<title>f5128d6ad53c4ec1afbf159225947a5d&#45;&gt;5abfb5ba124c49e6a90728993e971672</title>
<path fill="none" stroke="#7b8894" d="M384.35,-728.8C384.35,-728.8 531.82,-728.8 531.82,-728.8"/>
<polygon fill="#7b8894" stroke="#7b8894" points="531.83,-732.3 541.82,-728.8 531.82,-725.3 531.83,-732.3"/>
</g>
<!-- b17ca0f7bb44470bacecd5a66d61a970 -->
<g id="node14" class="node">
<title>b17ca0f7bb44470bacecd5a66d61a970</title>
<image xlink:href="C:\Users\spexcher\AppData\Local\Programs\Python\Python314\Lib\site-packages\resources/programming/language\nodejs.png" width="100.8px" height="100.8px" preserveAspectRatio="xMinYMin meet" x="543.15" y="-1091.9"/>
<text xml:space="preserve" text-anchor="middle" x="593.55" y="-976.35" font-family="Sans-Serif" font-size="10.00" fill="#2d3436">Express + HTTP</text>
</g>
<!-- 5abfb5ba124c49e6a90728993e971672&#45;&gt;b17ca0f7bb44470bacecd5a66d61a970 -->
<g id="edge21" class="edge">
<title>5abfb5ba124c49e6a90728993e971672&#45;&gt;b17ca0f7bb44470bacecd5a66d61a970</title>
<path fill="none" stroke="#7b8894" stroke-dasharray="5,2" d="M609.9,-858.21C609.9,-858.21 609.9,-961.62 609.9,-961.62"/>
<polygon fill="#7b8894" stroke="#7b8894" points="606.4,-961.62 609.9,-971.62 613.4,-961.62 606.4,-961.62"/>
</g>
<!-- 8e2427325eb64f53abb91a04e43ef856 -->
<g id="node9" class="node">
<title>8e2427325eb64f53abb91a04e43ef856</title>
<image xlink:href="C:\Users\spexcher\AppData\Local\Programs\Python\Python314\Lib\site-packages\resources/onprem/compute\server.png" width="100.8px" height="100.8px" preserveAspectRatio="xMinYMin meet" x="283.6" y="-908.9"/>
<text xml:space="preserve" text-anchor="middle" x="334" y="-793.35" font-family="Sans-Serif" font-size="10.00" fill="#2d3436">Static Bundle Host</text>
</g>
<!-- 8e2427325eb64f53abb91a04e43ef856&#45;&gt;b17ca0f7bb44470bacecd5a66d61a970 -->
<g id="edge22" class="edge">
<title>8e2427325eb64f53abb91a04e43ef856&#45;&gt;b17ca0f7bb44470bacecd5a66d61a970</title>
<path fill="none" stroke="#7b8894" d="M384.33,-892.6C455.48,-892.6 576.9,-892.6 576.9,-892.6 576.9,-892.6 576.9,-961.64 576.9,-961.64"/>
<polygon fill="#7b8894" stroke="#7b8894" points="573.4,-961.64 576.9,-971.64 580.4,-961.64 573.4,-961.64"/>
</g>
<!-- 0a30daf09bed4e2584d521e42cb9a99d -->
<g id="node10" class="node">
<title>0a30daf09bed4e2584d521e42cb9a99d</title>
<image xlink:href="C:\Users\spexcher\AppData\Local\Programs\Python\Python314\Lib\site-packages\resources/programming/language\nodejs.png" width="100.8px" height="100.8px" preserveAspectRatio="xMinYMin meet" x="1245.05" y="-1114.9"/>
<text xml:space="preserve" text-anchor="middle" x="1295.45" y="-997.7" font-family="Sans-Serif" font-size="10.00" fill="#2d3436">gameHandler</text>
<text xml:space="preserve" text-anchor="middle" x="1295.45" y="-984.95" font-family="Sans-Serif" font-size="10.00" fill="#2d3436">room lifecycle</text>
</g>
<!-- b2220a5f4e384bab8537132c07248e54 -->
<g id="node11" class="node">
<title>b2220a5f4e384bab8537132c07248e54</title>
<image xlink:href="C:\Users\spexcher\AppData\Local\Programs\Python\Python314\Lib\site-packages\resources/programming/language\nodejs.png" width="100.8px" height="100.8px" preserveAspectRatio="xMinYMin meet" x="1378.85" y="-1114.9"/>
<text xml:space="preserve" text-anchor="middle" x="1429.25" y="-997.7" font-family="Sans-Serif" font-size="10.00" fill="#2d3436">round engine</text>
<text xml:space="preserve" text-anchor="middle" x="1429.25" y="-984.95" font-family="Sans-Serif" font-size="10.00" fill="#2d3436">startRound/endRound</text>
</g>
<!-- 0a30daf09bed4e2584d521e42cb9a99d&#45;&gt;b2220a5f4e384bab8537132c07248e54 -->
<g id="edge8" class="edge">
<title>0a30daf09bed4e2584d521e42cb9a99d&#45;&gt;b2220a5f4e384bab8537132c07248e54</title>
<path fill="none" stroke="#7b8894" d="M1345.65,-1064.5C1345.65,-1064.5 1367.7,-1064.5 1367.7,-1064.5"/>
<polygon fill="#7b8894" stroke="#7b8894" points="1367.7,-1068 1377.7,-1064.5 1367.7,-1061 1367.7,-1068"/>
</g>
<!-- 0501efc66f1e473eb0ca7cab85f954f3 -->
<g id="node12" class="node">
<title>0501efc66f1e473eb0ca7cab85f954f3</title>
<image xlink:href="C:\Users\spexcher\AppData\Local\Programs\Python\Python314\Lib\site-packages\resources/programming/language\nodejs.png" width="100.8px" height="100.8px" preserveAspectRatio="xMinYMin meet" x="1378.85" y="-1290.9"/>
<text xml:space="preserve" text-anchor="middle" x="1429.25" y="-1175.35" font-family="Sans-Serif" font-size="10.00" fill="#2d3436">guess validator + scoring</text>
</g>
<!-- 0a30daf09bed4e2584d521e42cb9a99d&#45;&gt;0501efc66f1e473eb0ca7cab85f954f3 -->
<g id="edge9" class="edge">
<title>0a30daf09bed4e2584d521e42cb9a99d&#45;&gt;0501efc66f1e473eb0ca7cab85f954f3</title>
<path fill="none" stroke="#7b8894" d="M1320.9,-1147.09C1320.9,-1192.82 1320.9,-1240.5 1320.9,-1240.5 1320.9,-1240.5 1367.37,-1240.5 1367.37,-1240.5"/>
<polygon fill="#7b8894" stroke="#7b8894" points="1367.37,-1244 1377.37,-1240.5 1367.37,-1237 1367.37,-1244"/>
</g>
<!-- 6c86b285a3e8425aaf7934337ba4d7b1 -->
<g id="node13" class="node">
<title>6c86b285a3e8425aaf7934337ba4d7b1</title>
<image xlink:href="C:\Users\spexcher\AppData\Local\Programs\Python\Python314\Lib\site-packages\resources/programming/language\nodejs.png" width="100.8px" height="100.8px" preserveAspectRatio="xMinYMin meet" x="1378.85" y="-1452.9"/>
<text xml:space="preserve" text-anchor="middle" x="1429.25" y="-1337.35" font-family="Sans-Serif" font-size="10.00" fill="#2d3436">reconnect recovery</text>
</g>
<!-- 0a30daf09bed4e2584d521e42cb9a99d&#45;&gt;6c86b285a3e8425aaf7934337ba4d7b1 -->
<g id="edge10" class="edge">
<title>0a30daf09bed4e2584d521e42cb9a99d&#45;&gt;6c86b285a3e8425aaf7934337ba4d7b1</title>
<path fill="none" stroke="#7b8894" d="M1295.9,-1147.18C1295.9,-1247.25 1295.9,-1402.5 1295.9,-1402.5 1295.9,-1402.5 1367.7,-1402.5 1367.7,-1402.5"/>
<polygon fill="#7b8894" stroke="#7b8894" points="1367.7,-1406 1377.7,-1402.5 1367.7,-1399 1367.7,-1406"/>
</g>
<!-- 05bc7cf40806454e9db48e1e91620b9a -->
<g id="node20" class="node">
<title>05bc7cf40806454e9db48e1e91620b9a</title>
<image xlink:href="C:\Users\spexcher\AppData\Local\Programs\Python\Python314\Lib\site-packages\resources/onprem/inmemory\redis.png" width="100.8px" height="100.8px" preserveAspectRatio="xMinYMin meet" x="1919.3" y="-1198.9"/>
<text xml:space="preserve" text-anchor="middle" x="1969.7" y="-1083.35" font-family="Sans-Serif" font-size="10.00" fill="#2d3436">Redis</text>
</g>
<!-- 0a30daf09bed4e2584d521e42cb9a99d&#45;&gt;05bc7cf40806454e9db48e1e91620b9a -->
<g id="edge23" class="edge">
<title>0a30daf09bed4e2584d521e42cb9a99d&#45;&gt;05bc7cf40806454e9db48e1e91620b9a</title>
<path fill="none" stroke="orange" d="M1269.9,-1147.19C1269.9,-1153.51 1269.9,-1157.5 1269.9,-1157.5 1269.9,-1157.5 1907.86,-1157.5 1907.86,-1157.5"/>
<polygon fill="orange" stroke="orange" points="1907.86,-1161 1917.86,-1157.5 1907.86,-1154 1907.86,-1161"/>
<text xml:space="preserve" text-anchor="middle" x="1557.53" y="-980.65" font-family="Sans-Serif" font-size="13.00" fill="#2d3436">state reads/writes,</text>
<text xml:space="preserve" text-anchor="middle" x="1557.53" y="-964.15" font-family="Sans-Serif" font-size="13.00" fill="#2d3436">drawing history,</text>
<text xml:space="preserve" text-anchor="middle" x="1557.53" y="-947.65" font-family="Sans-Serif" font-size="13.00" fill="#2d3436">session tokens</text>
</g>
<!-- a94a28cefc424c1cb1c2606d12c14035 -->
<g id="node17" class="node">
<title>a94a28cefc424c1cb1c2606d12c14035</title>
<image xlink:href="C:\Users\spexcher\AppData\Local\Programs\Python\Python314\Lib\site-packages\resources/programming/language\nodejs.png" width="100.8px" height="100.8px" preserveAspectRatio="xMinYMin meet" x="1640.5" y="-1124.9"/>
<text xml:space="preserve" text-anchor="middle" x="1690.9" y="-1009.35" font-family="Sans-Serif" font-size="10.00" fill="#2d3436">wordService</text>
</g>
<!-- b2220a5f4e384bab8537132c07248e54&#45;&gt;a94a28cefc424c1cb1c2606d12c14035 -->
<g id="edge14" class="edge">
<title>b2220a5f4e384bab8537132c07248e54&#45;&gt;a94a28cefc424c1cb1c2606d12c14035</title>
<path fill="none" stroke="#7b8894" d="M1479.39,-1074.5C1479.39,-1074.5 1629.42,-1074.5 1629.42,-1074.5"/>
<polygon fill="#7b8894" stroke="#7b8894" points="1629.42,-1078 1639.42,-1074.5 1629.42,-1071 1629.42,-1078"/>
</g>
<!-- 526cba5b35b141e899f5fc8025051d95 -->
<g id="node18" class="node">
<title>526cba5b35b141e899f5fc8025051d95</title>
<image xlink:href="C:\Users\spexcher\AppData\Local\Programs\Python\Python314\Lib\site-packages\resources/programming/language\nodejs.png" width="100.8px" height="100.8px" preserveAspectRatio="xMinYMin meet" x="1640.5" y="-1286.9"/>
<text xml:space="preserve" text-anchor="middle" x="1690.9" y="-1171.35" font-family="Sans-Serif" font-size="10.00" fill="#2d3436">leaderboardService</text>
</g>
<!-- 0501efc66f1e473eb0ca7cab85f954f3&#45;&gt;526cba5b35b141e899f5fc8025051d95 -->
<g id="edge15" class="edge">
<title>0501efc66f1e473eb0ca7cab85f954f3&#45;&gt;526cba5b35b141e899f5fc8025051d95</title>
<path fill="none" stroke="#7b8894" d="M1479.39,-1238.5C1479.39,-1238.5 1629.42,-1238.5 1629.42,-1238.5"/>
<polygon fill="#7b8894" stroke="#7b8894" points="1629.42,-1242 1639.42,-1238.5 1629.42,-1235 1629.42,-1242"/>
</g>
<!-- 6c86b285a3e8425aaf7934337ba4d7b1&#45;&gt;05bc7cf40806454e9db48e1e91620b9a -->
<g id="edge24" class="edge">
<title>6c86b285a3e8425aaf7934337ba4d7b1&#45;&gt;05bc7cf40806454e9db48e1e91620b9a</title>
<path fill="none" stroke="orange" d="M1479.59,-1370.7C1587.19,-1370.7 1829.9,-1370.7 1829.9,-1370.7 1829.9,-1370.7 1829.9,-1200.63 1829.9,-1200.63 1829.9,-1200.63 1908.11,-1200.63 1908.11,-1200.63"/>
<polygon fill="orange" stroke="orange" points="1908.11,-1204.13 1918.11,-1200.63 1908.11,-1197.13 1908.11,-1204.13"/>
<text xml:space="preserve" text-anchor="middle" x="1690.9" y="-1390.65" font-family="Sans-Serif" font-size="13.00" fill="#2d3436">session mapping</text>
</g>
<!-- b17ca0f7bb44470bacecd5a66d61a970&#45;&gt;9cae9995d4164a00b07a7b6288d66d59 -->
<g id="edge11" class="edge">
<title>b17ca0f7bb44470bacecd5a66d61a970&#45;&gt;9cae9995d4164a00b07a7b6288d66d59</title>
<path fill="none" stroke="#7b8894" d="M643.79,-1041.5C643.79,-1041.5 966.21,-1041.5 966.21,-1041.5"/>
<polygon fill="#7b8894" stroke="#7b8894" points="966.21,-1045 976.21,-1041.5 966.21,-1038 966.21,-1045"/>
</g>
<!-- 9cae9995d4164a00b07a7b6288d66d59&#45;&gt;9812c6e3c436407db456f541c891f1d6 -->
<g id="edge19" class="edge">
<title>9cae9995d4164a00b07a7b6288d66d59&#45;&gt;9812c6e3c436407db456f541c891f1d6</title>
<path fill="none" stroke="darkgreen" stroke-width="2" d="M1044.9,-973.36C1044.9,-822.17 1044.9,-471.9 1044.9,-471.9 1044.9,-471.9 656.6,-471.9 656.6,-471.9"/>
<polygon fill="darkgreen" stroke="darkgreen" stroke-width="2" points="656.6,-468.4 646.6,-471.9 656.6,-475.4 656.6,-468.4"/>
<text xml:space="preserve" text-anchor="middle" x="810.7" y="-917.15" font-family="Sans-Serif" font-size="13.00" fill="#2d3436">roomUpdate/roundStart/gameState/</text>
<text xml:space="preserve" text-anchor="middle" x="810.7" y="-900.65" font-family="Sans-Serif" font-size="13.00" fill="#2d3436">drawingSync/yourWord/guessResult/gameEnd</text>
</g>
<!-- 679f80ef69044ab6873f83280c6d78ad -->
<g id="node16" class="node">
<title>679f80ef69044ab6873f83280c6d78ad</title>
<image xlink:href="C:\Users\spexcher\AppData\Local\Programs\Python\Python314\Lib\site-packages\resources/programming/language\nodejs.png" width="100.8px" height="100.8px" preserveAspectRatio="xMinYMin meet" x="1111.25" y="-1110.9"/>
<text xml:space="preserve" text-anchor="middle" x="1161.65" y="-993.7" font-family="Sans-Serif" font-size="10.00" fill="#2d3436">authMiddleware</text>
<text xml:space="preserve" text-anchor="middle" x="1161.65" y="-980.95" font-family="Sans-Serif" font-size="10.00" fill="#2d3436">jwt/anon identity</text>
</g>
<!-- 9cae9995d4164a00b07a7b6288d66d59&#45;&gt;679f80ef69044ab6873f83280c6d78ad -->
<g id="edge12" class="edge">
<title>9cae9995d4164a00b07a7b6288d66d59&#45;&gt;679f80ef69044ab6873f83280c6d78ad</title>
<path fill="none" stroke="#7b8894" d="M1078.05,-1043.8C1078.05,-1043.8 1100.1,-1043.8 1100.1,-1043.8"/>
<polygon fill="#7b8894" stroke="#7b8894" points="1100.1,-1047.3 1110.1,-1043.8 1100.1,-1040.3 1100.1,-1047.3"/>
</g>
<!-- 679f80ef69044ab6873f83280c6d78ad&#45;&gt;0a30daf09bed4e2584d521e42cb9a99d -->
<g id="edge13" class="edge">
<title>679f80ef69044ab6873f83280c6d78ad&#45;&gt;0a30daf09bed4e2584d521e42cb9a99d</title>
<path fill="none" stroke="#7b8894" d="M1211.85,-1062.5C1211.85,-1062.5 1233.9,-1062.5 1233.9,-1062.5"/>
<polygon fill="#7b8894" stroke="#7b8894" points="1233.9,-1066 1243.9,-1062.5 1233.9,-1059 1233.9,-1066"/>
</g>
<!-- 526cba5b35b141e899f5fc8025051d95&#45;&gt;05bc7cf40806454e9db48e1e91620b9a -->
<g id="edge25" class="edge">
<title>526cba5b35b141e899f5fc8025051d95&#45;&gt;05bc7cf40806454e9db48e1e91620b9a</title>
<path fill="none" stroke="orange" d="M1741.07,-1184.37C1741.07,-1184.37 1907.95,-1184.37 1907.95,-1184.37"/>
<polygon fill="orange" stroke="orange" points="1907.95,-1187.87 1917.95,-1184.37 1907.95,-1180.87 1907.95,-1187.87"/>
<text xml:space="preserve" text-anchor="middle" x="1834.3" y="-1184.65" font-family="Sans-Serif" font-size="13.00" fill="#2d3436">leaderboard updates</text>
</g>
<!-- 36ca88ca5aac43edb40998321068bcd2 -->
<g id="node22" class="node">
<title>36ca88ca5aac43edb40998321068bcd2</title>
<image xlink:href="C:\Users\spexcher\AppData\Local\Programs\Python\Python314\Lib\site-packages\resources/onprem/database\postgresql.png" width="100.8px" height="100.8px" preserveAspectRatio="xMinYMin meet" x="1919.3" y="-1374.9"/>
<text xml:space="preserve" text-anchor="middle" x="1969.7" y="-1257.7" font-family="Sans-Serif" font-size="10.00" fill="#2d3436">PostgreSQL</text>
<text xml:space="preserve" text-anchor="middle" x="1969.7" y="-1244.95" font-family="Sans-Serif" font-size="10.00" fill="#2d3436">(persistent records)</text>
</g>
<!-- 526cba5b35b141e899f5fc8025051d95&#45;&gt;36ca88ca5aac43edb40998321068bcd2 -->
<g id="edge26" class="edge">
<title>526cba5b35b141e899f5fc8025051d95&#45;&gt;36ca88ca5aac43edb40998321068bcd2</title>
<path fill="none" stroke="brown" d="M1741.07,-1273.3C1741.07,-1273.3 1907.95,-1273.3 1907.95,-1273.3"/>
<polygon fill="brown" stroke="brown" points="1907.95,-1276.8 1917.95,-1273.3 1907.95,-1269.8 1907.95,-1276.8"/>
<text xml:space="preserve" text-anchor="middle" x="1834.3" y="-1295.65" font-family="Sans-Serif" font-size="13.00" fill="#2d3436">optional persistence</text>
</g>
<!-- e6ed99603f364eb1bd149dbb563fb0e5 -->
<g id="node19" class="node">
<title>e6ed99603f364eb1bd149dbb563fb0e5</title>
<image xlink:href="C:\Users\spexcher\AppData\Local\Programs\Python\Python314\Lib\site-packages\resources/onprem/compute\server.png" width="100.8px" height="100.8px" preserveAspectRatio="xMinYMin meet" x="283.6" y="-1120.9"/>
<text xml:space="preserve" text-anchor="middle" x="334" y="-1002.05" font-family="Sans-Serif" font-size="10.00" fill="#2d3436">.env/config</text>
<text xml:space="preserve" text-anchor="middle" x="334" y="-989.3" font-family="Sans-Serif" font-size="10.00" fill="#2d3436">PORT/REDIS_URL/</text>
<text xml:space="preserve" text-anchor="middle" x="334" y="-976.55" font-family="Sans-Serif" font-size="10.00" fill="#2d3436">DATABASE_URL/JWT_SECRET</text>
</g>
<!-- e6ed99603f364eb1bd149dbb563fb0e5&#45;&gt;b17ca0f7bb44470bacecd5a66d61a970 -->
<g id="edge16" class="edge">
<title>e6ed99603f364eb1bd149dbb563fb0e5&#45;&gt;b17ca0f7bb44470bacecd5a66d61a970</title>
<path fill="none" stroke="#7b8894" d="M384.35,-1041.6C384.35,-1041.6 531.82,-1041.6 531.82,-1041.6"/>
<polygon fill="#7b8894" stroke="#7b8894" points="531.83,-1045.1 541.82,-1041.6 531.82,-1038.1 531.83,-1045.1"/>
</g>
<!-- ce4eaa56f8b74e02ba3158d6ba702d75 -->
<g id="node21" class="node">
<title>ce4eaa56f8b74e02ba3158d6ba702d75</title>
<image xlink:href="C:\Users\spexcher\AppData\Local\Programs\Python\Python314\Lib\site-packages\resources/onprem/compute\server.png" width="100.8px" height="100.8px" preserveAspectRatio="xMinYMin meet" x="2053.1" y="-1270.9"/>
<text xml:space="preserve" text-anchor="middle" x="2103.5" y="-1147.1" font-family="Sans-Serif" font-size="10.00" fill="#2d3436">Keys:</text>
<text xml:space="preserve" text-anchor="middle" x="2103.5" y="-1134.35" font-family="Sans-Serif" font-size="10.00" fill="#2d3436">room:*</text>
<text xml:space="preserve" text-anchor="middle" x="2103.5" y="-1121.6" font-family="Sans-Serif" font-size="10.00" fill="#2d3436">game:*</text>
<text xml:space="preserve" text-anchor="middle" x="2103.5" y="-1108.85" font-family="Sans-Serif" font-size="10.00" fill="#2d3436">drawing:*</text>
<text xml:space="preserve" text-anchor="middle" x="2103.5" y="-1096.1" font-family="Sans-Serif" font-size="10.00" fill="#2d3436">session:*</text>
<text xml:space="preserve" text-anchor="middle" x="2103.5" y="-1083.35" font-family="Sans-Serif" font-size="10.00" fill="#2d3436">leaderboard</text>
</g>
<!-- 05bc7cf40806454e9db48e1e91620b9a&#45;&gt;ce4eaa56f8b74e02ba3158d6ba702d75 -->
<g id="edge17" class="edge">
<title>05bc7cf40806454e9db48e1e91620b9a&#45;&gt;ce4eaa56f8b74e02ba3158d6ba702d75</title>
<path fill="none" stroke="#7b8894" d="M2019.9,-1148.5C2019.9,-1148.5 2041.95,-1148.5 2041.95,-1148.5"/>
<polygon fill="#7b8894" stroke="#7b8894" points="2041.95,-1152 2051.95,-1148.5 2041.95,-1145 2041.95,-1152"/>
</g>
</g>
</svg>
