<?xml version="1.0" encoding="UTF-8" standalone="no"?>
<!DOCTYPE svg PUBLIC "-//W3C//DTD SVG 1.1//EN"
 "http://www.w3.org/Graphics/SVG/1.1/DTD/svg11.dtd">
<!-- Generated by graphviz version 14.1.2 (20260124.0452)
 -->
<!-- Title: Pictionary Round Flow (Realtime) Pages: 1 -->
<svg width="949pt" height="1026pt"
 viewBox="0.00 0.00 949.00 1026.00" xmlns="http://www.w3.org/2000/svg" xmlns:xlink="http://www.w3.org/1999/xlink">
<g id="graph0" class="graph" transform="scale(1 1) rotate(0) translate(14.4 1011.3)">
<title>Pictionary Round Flow (Realtime)</title>
<polygon fill="white" stroke="none" points="-14.4,14.4 -14.4,-1011.3 934.45,-1011.3 934.45,14.4 -14.4,14.4"/>
<text xml:space="preserve" text-anchor="middle" x="460.02" y="-7.05" font-family="Helvetica,sans-Serif" font-size="11.00" fill="#2d3436">Pictionary Round Flow (Realtime)</text>
<g id="clust1" class="cluster">
<title>cluster_Actors</title>
<path fill="#e5f5fd" stroke="#aeb6be" d="M20,-162.9C20,-162.9 112.8,-162.9 112.8,-162.9 118.8,-162.9 124.8,-168.9 124.8,-174.9 124.8,-174.9 124.8,-487.9 124.8,-487.9 124.8,-493.9 118.8,-499.9 112.8,-499.9 112.8,-499.9 20,-499.9 20,-499.9 14,-499.9 8,-493.9 8,-487.9 8,-487.9 8,-174.9 8,-174.9 8,-168.9 14,-162.9 20,-162.9"/>
<text xml:space="preserve" text-anchor="middle" x="35.12" y="-484.5" font-family="Sans-Serif" font-size="12.00" fill="#2d3436">Actors</text>
</g>
<g id="clust2" class="cluster">
<title>cluster_Realtime Engine</title>
<path fill="#e5f5fd" stroke="#aeb6be" d="M287.6,-295.9C287.6,-295.9 766.25,-295.9 766.25,-295.9 772.25,-295.9 778.25,-301.9 778.25,-307.9 778.25,-307.9 778.25,-620.9 778.25,-620.9 778.25,-626.9 772.25,-632.9 766.25,-632.9 766.25,-632.9 287.6,-632.9 287.6,-632.9 281.6,-632.9 275.6,-626.9 275.6,-620.9 275.6,-620.9 275.6,-307.9 275.6,-307.9 275.6,-301.9 281.6,-295.9 287.6,-295.9"/>
<text xml:space="preserve" text-anchor="middle" x="331.97" y="-617.5" font-family="Sans-Serif" font-size="12.00" fill="#2d3436">Realtime Engine</text>
</g>
<g id="clust3" class="cluster">
<title>cluster_State</title>
<path fill="#e5f5fd" stroke="#aeb6be" d="M673.45,-784.9C673.45,-784.9 900.05,-784.9 900.05,-784.9 906.05,-784.9 912.05,-790.9 912.05,-796.9 912.05,-796.9 912.05,-976.9 912.05,-976.9 912.05,-982.9 906.05,-988.9 900.05,-988.9 900.05,-988.9 673.45,-988.9 673.45,-988.9 667.45,-988.9 661.45,-982.9 661.45,-976.9 661.45,-976.9 661.45,-796.9 661.45,-796.9 661.45,-790.9 667.45,-784.9 673.45,-784.9"/>
<text xml:space="preserve" text-anchor="middle" x="685.2" y="-973.5" font-family="Sans-Serif" font-size="12.00" fill="#2d3436">State</text>
</g>
<!-- dced169e1c59418fb323d80911710903 -->
<g id="node1" class="node">
<title>dced169e1c59418fb323d80911710903</title>
<image xlink:href="C:\Users\spexcher\AppData\Local\Programs\Python\Python314\Lib\site-packages\resources/onprem/client\users.png" width="100.8px" height="100.8px" preserveAspectRatio="xMinYMin meet" x="16" y="-451.3"/>
<text xml:space="preserve" text-anchor="middle" x="66.4" y="-335.75" font-family="Sans-Serif" font-size="10.00" fill="#2d3436">Host/Drawer</text>
</g>
<!-- 3b20e6f63a184961ae6f5b953a335c3c -->
<g id="node9" class="node">
<title>3b20e6f63a184961ae6f5b953a335c3c</title>
<image xlink:href="C:\Users\spexcher\AppData\Local\Programs\Python\Python314\Lib\site-packages\resources/onprem/compute\server.png" width="100.8px" height="100.8px" preserveAspectRatio="xMinYMin meet" x="149.8" y="-676.3"/>
<text xml:space="preserve" text-anchor="middle" x="200.2" y="-560.75" font-family="Sans-Serif" font-size="10.00" fill="#2d3436">1) Host starts game</text>
</g>
<!-- dced169e1c59418fb323d80911710903&#45;&gt;3b20e6f63a184961ae6f5b953a335c3c -->
<g id="edge5" class="edge">
<title>dced169e1c59418fb323d80911710903&#45;&gt;3b20e6f63a184961ae6f5b953a335c3c</title>
<path fill="none" stroke="#7b8894" d="M66.05,-469.02C66.05,-535.24 66.05,-625.9 66.05,-625.9 66.05,-625.9 138.35,-625.9 138.35,-625.9"/>
<polygon fill="#7b8894" stroke="#7b8894" points="138.35,-629.4 148.35,-625.9 138.35,-622.4 138.35,-629.4"/>
</g>
<!-- 35bc23ec8da648309299bf3e1438bc79 -->
<g id="node12" class="node">
<title>35bc23ec8da648309299bf3e1438bc79</title>
<image xlink:href="C:\Users\spexcher\AppData\Local\Programs\Python\Python314\Lib\site-packages\resources/onprem/compute\server.png" width="100.8px" height="100.8px" preserveAspectRatio="xMinYMin meet" x="149.8" y="-514.3"/>
<text xml:space="preserve" text-anchor="middle" x="200.2" y="-398.75" font-family="Sans-Serif" font-size="10.00" fill="#2d3436">4) host sends drawCommand + snapshot</text>
</g>
<!-- dced169e1c59418fb323d80911710903&#45;&gt;35bc23ec8da648309299bf3e1438bc79 -->
<g id="edge11" class="edge">
<title>dced169e1c59418fb323d80911710903&#45;&gt;35bc23ec8da648309299bf3e1438bc79</title>
<path fill="none" stroke="#7b8894" d="M116.6,-432.4C116.6,-432.4 138.65,-432.4 138.65,-432.4"/>
<polygon fill="#7b8894" stroke="#7b8894" points="138.65,-435.9 148.65,-432.4 138.65,-428.9 138.65,-435.9"/>
</g>
<!-- 55992e9fd4b34a58aa7a0e66446fdb8b -->
<g id="node2" class="node">
<title>55992e9fd4b34a58aa7a0e66446fdb8b</title>
<image xlink:href="C:\Users\spexcher\AppData\Local\Programs\Python\Python314\Lib\site-packages\resources/onprem/client\users.png" width="100.8px" height="100.8px" preserveAspectRatio="xMinYMin meet" x="16" y="-289.3"/>
<text xml:space="preserve" text-anchor="middle" x="66.4" y="-173.75" font-family="Sans-Serif" font-size="10.00" fill="#2d3436">Guessers</text>
</g>
<!-- 2b9c0249a884471babd9c5e99fdc05d7 -->
<g id="node14" class="node">
<title>2b9c0249a884471babd9c5e99fdc05d7</title>
<image xlink:href="C:\Users\spexcher\AppData\Local\Programs\Python\Python314\Lib\site-packages\resources/onprem/compute\server.png" width="100.8px" height="100.8px" preserveAspectRatio="xMinYMin meet" x="149.8" y="-352.3"/>
<text xml:space="preserve" text-anchor="middle" x="200.2" y="-236.75" font-family="Sans-Serif" font-size="10.00" fill="#2d3436">6) guessers send makeGuess</text>
</g>
<!-- 55992e9fd4b34a58aa7a0e66446fdb8b&#45;&gt;2b9c0249a884471babd9c5e99fdc05d7 -->
<g id="edge15" class="edge">
<title>55992e9fd4b34a58aa7a0e66446fdb8b&#45;&gt;2b9c0249a884471babd9c5e99fdc05d7</title>
<path fill="none" stroke="#7b8894" d="M116.6,-270.4C116.6,-270.4 138.65,-270.4 138.65,-270.4"/>
<polygon fill="#7b8894" stroke="#7b8894" points="138.65,-273.9 148.65,-270.4 138.65,-266.9 138.65,-273.9"/>
</g>
<!-- 79252803615f42539ead456733fc8465 -->
<g id="node3" class="node">
<title>79252803615f42539ead456733fc8465</title>
<image xlink:href="C:\Users\spexcher\AppData\Local\Programs\Python\Python314\Lib\site-packages\resources/programming/language\nodejs.png" width="100.8px" height="100.8px" preserveAspectRatio="xMinYMin meet" x="283.6" y="-490.3"/>
<text xml:space="preserve" text-anchor="middle" x="334" y="-374.75" font-family="Sans-Serif" font-size="10.00" fill="#2d3436">Socket.IO</text>
</g>
<!-- 551d41d222f64733b6ecdfd0b8ba56ec -->
<g id="node4" class="node">
<title>551d41d222f64733b6ecdfd0b8ba56ec</title>
<image xlink:href="C:\Users\spexcher\AppData\Local\Programs\Python\Python314\Lib\site-packages\resources/programming/language\nodejs.png" width="100.8px" height="100.8px" preserveAspectRatio="xMinYMin meet" x="417.4" y="-584.3"/>
<text xml:space="preserve" text-anchor="middle" x="467.8" y="-468.75" font-family="Sans-Serif" font-size="10.00" fill="#2d3436">gameHandler</text>
</g>
<!-- 79252803615f42539ead456733fc8465&#45;&gt;551d41d222f64733b6ecdfd0b8ba56ec -->
<g id="edge1" class="edge">
<title>79252803615f42539ead456733fc8465&#45;&gt;551d41d222f64733b6ecdfd0b8ba56ec</title>
<path fill="none" stroke="#7b8894" d="M384.2,-494.03C384.2,-494.03 406.25,-494.03 406.25,-494.03"/>
<polygon fill="#7b8894" stroke="#7b8894" points="406.25,-497.53 416.25,-494.03 406.25,-490.53 406.25,-497.53"/>
</g>
<!-- 79252803615f42539ead456733fc8465&#45;&gt;551d41d222f64733b6ecdfd0b8ba56ec -->
<g id="edge7" class="edge">
<title>79252803615f42539ead456733fc8465&#45;&gt;551d41d222f64733b6ecdfd0b8ba56ec</title>
<path fill="none" stroke="#7b8894" d="M384.2,-479.77C384.2,-479.77 406.25,-479.77 406.25,-479.77"/>
<polygon fill="#7b8894" stroke="#7b8894" points="406.25,-483.27 416.25,-479.77 406.25,-476.27 406.25,-483.27"/>
</g>
<!-- 308ae484520d4e978046d00c2d73364f -->
<g id="node6" class="node">
<title>308ae484520d4e978046d00c2d73364f</title>
<image xlink:href="C:\Users\spexcher\AppData\Local\Programs\Python\Python314\Lib\site-packages\resources/programming/language\nodejs.png" width="100.8px" height="100.8px" preserveAspectRatio="xMinYMin meet" x="669.45" y="-584.3"/>
<text xml:space="preserve" text-anchor="middle" x="719.85" y="-468.75" font-family="Sans-Serif" font-size="10.00" fill="#2d3436">guess check + scoring</text>
</g>
<!-- 79252803615f42539ead456733fc8465&#45;&gt;308ae484520d4e978046d00c2d73364f -->
<g id="edge17" class="edge">
<title>79252803615f42539ead456733fc8465&#45;&gt;308ae484520d4e978046d00c2d73364f</title>
<path fill="none" stroke="#7b8894" d="M384.07,-457.1C488.53,-457.1 720.05,-457.1 720.05,-457.1 720.05,-457.1 720.05,-457.95 720.05,-457.95"/>
<polygon fill="#7b8894" stroke="#7b8894" points="716.55,-454.1 720.05,-464.1 723.55,-454.1 716.55,-454.1"/>
</g>
<!-- fd1fcd624fad4dbcbc10230f578e13a7 -->
<g id="node13" class="node">
<title>fd1fcd624fad4dbcbc10230f578e13a7</title>
<image xlink:href="C:\Users\spexcher\AppData\Local\Programs\Python\Python314\Lib\site-packages\resources/onprem/compute\server.png" width="100.8px" height="100.8px" preserveAspectRatio="xMinYMin meet" x="417.4" y="-246.3"/>
<text xml:space="preserve" text-anchor="middle" x="467.8" y="-130.75" font-family="Sans-Serif" font-size="10.00" fill="#2d3436">5) relay drawingSync to room</text>
</g>
<!-- 79252803615f42539ead456733fc8465&#45;&gt;fd1fcd624fad4dbcbc10230f578e13a7 -->
<g id="edge13" class="edge">
<title>79252803615f42539ead456733fc8465&#45;&gt;fd1fcd624fad4dbcbc10230f578e13a7</title>
<path fill="none" stroke="#7b8894" d="M351.05,-371.75C351.05,-316.9 351.05,-248.9 351.05,-248.9 351.05,-248.9 406.1,-248.9 406.1,-248.9"/>
<polygon fill="#7b8894" stroke="#7b8894" points="406.1,-252.4 416.1,-248.9 406.1,-245.4 406.1,-252.4"/>
</g>
<!-- 4bcd3f74ab914487a0782ebfed9f42af -->
<g id="node5" class="node">
<title>4bcd3f74ab914487a0782ebfed9f42af</title>
<image xlink:href="C:\Users\spexcher\AppData\Local\Programs\Python\Python314\Lib\site-packages\resources/programming/language\nodejs.png" width="100.8px" height="100.8px" preserveAspectRatio="xMinYMin meet" x="669.45" y="-422.3"/>
<text xml:space="preserve" text-anchor="middle" x="719.85" y="-306.75" font-family="Sans-Serif" font-size="10.00" fill="#2d3436">round timer tick</text>
</g>
<!-- 551d41d222f64733b6ecdfd0b8ba56ec&#45;&gt;4bcd3f74ab914487a0782ebfed9f42af -->
<g id="edge2" class="edge">
<title>551d41d222f64733b6ecdfd0b8ba56ec&#45;&gt;4bcd3f74ab914487a0782ebfed9f42af</title>
<path fill="none" stroke="#7b8894" d="M468.05,-465.78C468.05,-435.21 468.05,-405.9 468.05,-405.9 468.05,-405.9 657.99,-405.9 657.99,-405.9"/>
<polygon fill="#7b8894" stroke="#7b8894" points="657.99,-409.4 667.99,-405.9 657.99,-402.4 657.99,-409.4"/>
</g>
<!-- 551d41d222f64733b6ecdfd0b8ba56ec&#45;&gt;308ae484520d4e978046d00c2d73364f -->
<g id="edge3" class="edge">
<title>551d41d222f64733b6ecdfd0b8ba56ec&#45;&gt;308ae484520d4e978046d00c2d73364f</title>
<path fill="none" stroke="#7b8894" d="M517.9,-556.7C517.9,-556.7 658.33,-556.7 658.33,-556.7"/>
<polygon fill="#7b8894" stroke="#7b8894" points="658.33,-560.2 668.33,-556.7 658.33,-553.2 658.33,-560.2"/>
</g>
<!-- 5b9238991dcd4e968c23bc6c0028eaf2 -->
<g id="node7" class="node">
<title>5b9238991dcd4e968c23bc6c0028eaf2</title>
<image xlink:href="C:\Users\spexcher\AppData\Local\Programs\Python\Python314\Lib\site-packages\resources/onprem/inmemory\redis.png" width="100.8px" height="100.8px" preserveAspectRatio="xMinYMin meet" x="669.45" y="-923.3"/>
<text xml:space="preserve" text-anchor="middle" x="719.85" y="-807.75" font-family="Sans-Serif" font-size="10.00" fill="#2d3436">Redis</text>
</g>
<!-- 551d41d222f64733b6ecdfd0b8ba56ec&#45;&gt;5b9238991dcd4e968c23bc6c0028eaf2 -->
<g id="edge24" class="edge">
<title>551d41d222f64733b6ecdfd0b8ba56ec&#45;&gt;5b9238991dcd4e968c23bc6c0028eaf2</title>
<path fill="none" stroke="orange" d="M451.05,-602.09C451.05,-701.09 451.05,-872.9 451.05,-872.9 451.05,-872.9 658.09,-872.9 658.09,-872.9"/>
<polygon fill="orange" stroke="orange" points="658.09,-876.4 668.09,-872.9 658.09,-869.4 658.09,-876.4"/>
<text xml:space="preserve" text-anchor="middle" x="593.82" y="-776.05" font-family="Sans-Serif" font-size="13.00" fill="#2d3436">state reads/writes</text>
</g>
<!-- afed541474ba4ec783ac4412d229e6b9 -->
<g id="node10" class="node">
<title>afed541474ba4ec783ac4412d229e6b9</title>
<image xlink:href="C:\Users\spexcher\AppData\Local\Programs\Python\Python314\Lib\site-packages\resources/onprem/compute\server.png" width="100.8px" height="100.8px" preserveAspectRatio="xMinYMin meet" x="669.45" y="-759.3"/>
<text xml:space="preserve" text-anchor="middle" x="719.85" y="-643.75" font-family="Sans-Serif" font-size="10.00" fill="#2d3436">2) select drawer + word + round time</text>
</g>
<!-- 551d41d222f64733b6ecdfd0b8ba56ec&#45;&gt;afed541474ba4ec783ac4412d229e6b9 -->
<g id="edge8" class="edge">
<title>551d41d222f64733b6ecdfd0b8ba56ec&#45;&gt;afed541474ba4ec783ac4412d229e6b9</title>
<path fill="none" stroke="#7b8894" d="M485.05,-602.21C485.05,-635.06 485.05,-667.4 485.05,-667.4 485.05,-667.4 657.97,-667.4 657.97,-667.4"/>
<polygon fill="#7b8894" stroke="#7b8894" points="657.97,-670.9 667.97,-667.4 657.97,-663.9 657.97,-670.9"/>
</g>
<!-- 912c80d64b294f4c9f0f5b73f7e72b50 -->
<g id="node15" class="node">
<title>912c80d64b294f4c9f0f5b73f7e72b50</title>
<image xlink:href="C:\Users\spexcher\AppData\Local\Programs\Python\Python314\Lib\site-packages\resources/onprem/compute\server.png" width="100.8px" height="100.8px" preserveAspectRatio="xMinYMin meet" x="149.8" y="-140.3"/>
<text xml:space="preserve" text-anchor="middle" x="200.2" y="-24.75" font-family="Sans-Serif" font-size="10.00" fill="#2d3436">7) emit guessResult/gameState</text>
</g>
<!-- 4bcd3f74ab914487a0782ebfed9f42af&#45;&gt;912c80d64b294f4c9f0f5b73f7e72b50 -->
<g id="edge20" class="edge">
<title>4bcd3f74ab914487a0782ebfed9f42af&#45;&gt;912c80d64b294f4c9f0f5b73f7e72b50</title>
<path fill="none" stroke="#7b8894" d="M720.05,-303.54C720.05,-210.87 720.05,-56.83 720.05,-56.83 720.05,-56.83 262.03,-56.83 262.03,-56.83"/>
<polygon fill="#7b8894" stroke="#7b8894" points="262.03,-53.33 252.03,-56.83 262.03,-60.33 262.03,-53.33"/>
</g>
<!-- 308ae484520d4e978046d00c2d73364f&#45;&gt;912c80d64b294f4c9f0f5b73f7e72b50 -->
<g id="edge18" class="edge">
<title>308ae484520d4e978046d00c2d73364f&#45;&gt;912c80d64b294f4c9f0f5b73f7e72b50</title>
<path fill="none" stroke="#7b8894" d="M669.77,-511.1C634.69,-511.1 594.05,-511.1 594.05,-511.1 594.05,-511.1 594.05,-92.17 594.05,-92.17 594.05,-92.17 261.99,-92.17 261.99,-92.17"/>
<polygon fill="#7b8894" stroke="#7b8894" points="261.99,-88.67 251.99,-92.17 261.99,-95.67 261.99,-88.67"/>
</g>
<!-- c151883716d14dd39cb6a9f542d16c1f -->
<g id="node16" class="node">
<title>c151883716d14dd39cb6a9f542d16c1f</title>
<image xlink:href="C:\Users\spexcher\AppData\Local\Programs\Python\Python314\Lib\site-packages\resources/onprem/compute\server.png" width="100.8px" height="100.8px" preserveAspectRatio="xMinYMin meet" x="803.25" y="-584.3"/>
<text xml:space="preserve" text-anchor="middle" x="853.65" y="-468.75" font-family="Sans-Serif" font-size="10.00" fill="#2d3436">8) nextRound or gameEnd</text>
</g>
<!-- 308ae484520d4e978046d00c2d73364f&#45;&gt;c151883716d14dd39cb6a9f542d16c1f -->
<g id="edge23" class="edge">
<title>308ae484520d4e978046d00c2d73364f&#45;&gt;c151883716d14dd39cb6a9f542d16c1f</title>
<path fill="none" stroke="#7b8894" d="M770.05,-533.9C770.05,-533.9 792.1,-533.9 792.1,-533.9"/>
<polygon fill="#7b8894" stroke="#7b8894" points="792.1,-537.4 802.1,-533.9 792.1,-530.4 792.1,-537.4"/>
</g>
<!-- 1f6bca16b4a1469aa89c44498817ed3c -->
<g id="node8" class="node">
<title>1f6bca16b4a1469aa89c44498817ed3c</title>
<image xlink:href="C:\Users\spexcher\AppData\Local\Programs\Python\Python314\Lib\site-packages\resources/onprem/compute\server.png" width="100.8px" height="100.8px" preserveAspectRatio="xMinYMin meet" x="803.25" y="-926.3"/>
<text xml:space="preserve" text-anchor="middle" x="853.65" y="-809.1" font-family="Sans-Serif" font-size="10.00" fill="#2d3436">room/game/drawing/</text>
<text xml:space="preserve" text-anchor="middle" x="853.65" y="-796.35" font-family="Sans-Serif" font-size="10.00" fill="#2d3436">session/leaderboard keys</text>
</g>
<!-- 5b9238991dcd4e968c23bc6c0028eaf2&#45;&gt;1f6bca16b4a1469aa89c44498817ed3c -->
<g id="edge4" class="edge">
<title>5b9238991dcd4e968c23bc6c0028eaf2&#45;&gt;1f6bca16b4a1469aa89c44498817ed3c</title>
<path fill="none" stroke="#7b8894" d="M770.05,-872.9C770.05,-872.9 792.1,-872.9 792.1,-872.9"/>
<polygon fill="#7b8894" stroke="#7b8894" points="792.1,-876.4 802.1,-872.9 792.1,-869.4 792.1,-876.4"/>
</g>
<!-- 3b20e6f63a184961ae6f5b953a335c3c&#45;&gt;79252803615f42539ead456733fc8465 -->
<g id="edge6" class="edge">
<title>3b20e6f63a184961ae6f5b953a335c3c&#45;&gt;79252803615f42539ead456733fc8465</title>
<path fill="none" stroke="#7b8894" d="M250.42,-579.9C288.4,-579.9 334.05,-579.9 334.05,-579.9 334.05,-579.9 334.05,-519.77 334.05,-519.77"/>
<polygon fill="#7b8894" stroke="#7b8894" points="337.55,-519.77 334.05,-509.77 330.55,-519.77 337.55,-519.77"/>
</g>
<!-- d1882ac45d10478db79826c47c718d05 -->
<g id="node11" class="node">
<title>d1882ac45d10478db79826c47c718d05</title>
<image xlink:href="C:\Users\spexcher\AppData\Local\Programs\Python\Python314\Lib\site-packages\resources/onprem/compute\server.png" width="100.8px" height="100.8px" preserveAspectRatio="xMinYMin meet" x="803.25" y="-369.3"/>
<text xml:space="preserve" text-anchor="middle" x="853.65" y="-253.75" font-family="Sans-Serif" font-size="10.00" fill="#2d3436">3) emit roundStart + yourWord</text>
</g>
<!-- afed541474ba4ec783ac4412d229e6b9&#45;&gt;d1882ac45d10478db79826c47c718d05 -->
<g id="edge9" class="edge">
<title>afed541474ba4ec783ac4412d229e6b9&#45;&gt;d1882ac45d10478db79826c47c718d05</title>
<path fill="none" stroke="#7b8894" d="M770.09,-708.9C779.81,-708.9 787.05,-708.9 787.05,-708.9 787.05,-708.9 787.05,-345.4 787.05,-345.4 787.05,-345.4 792,-345.4 792,-345.4"/>
<polygon fill="#7b8894" stroke="#7b8894" points="792,-348.9 802,-345.4 792,-341.9 792,-348.9"/>
</g>
<!-- d1882ac45d10478db79826c47c718d05&#45;&gt;79252803615f42539ead456733fc8465 -->
<g id="edge10" class="edge">
<title>d1882ac45d10478db79826c47c718d05&#45;&gt;79252803615f42539ead456733fc8465</title>
<path fill="none" stroke="#7b8894" d="M854.05,-387.22C854.05,-418.49 854.05,-448.7 854.05,-448.7 854.05,-448.7 395.85,-448.7 395.85,-448.7"/>
<polygon fill="#7b8894" stroke="#7b8894" points="395.85,-445.2 385.85,-448.7 395.85,-452.2 395.85,-445.2"/>
</g>
<!-- 35bc23ec8da648309299bf3e1438bc79&#45;&gt;79252803615f42539ead456733fc8465 -->
<g id="edge12" class="edge">
<title>35bc23ec8da648309299bf3e1438bc79&#45;&gt;79252803615f42539ead456733fc8465</title>
<path fill="none" stroke="#7b8894" d="M250.4,-451.9C250.4,-451.9 272.45,-451.9 272.45,-451.9"/>
<polygon fill="#7b8894" stroke="#7b8894" points="272.45,-455.4 282.45,-451.9 272.45,-448.4 272.45,-455.4"/>
</g>
<!-- fd1fcd624fad4dbcbc10230f578e13a7&#45;&gt;55992e9fd4b34a58aa7a0e66446fdb8b -->
<g id="edge14" class="edge">
<title>fd1fcd624fad4dbcbc10230f578e13a7&#45;&gt;55992e9fd4b34a58aa7a0e66446fdb8b</title>
<path fill="none" stroke="#7b8894" d="M417.77,-212.5C417.77,-212.5 128.25,-212.5 128.25,-212.5"/>
<polygon fill="#7b8894" stroke="#7b8894" points="128.25,-209 118.25,-212.5 128.25,-216 128.25,-209"/>
</g>
<!-- 2b9c0249a884471babd9c5e99fdc05d7&#45;&gt;79252803615f42539ead456733fc8465 -->
<g id="edge16" class="edge">
<title>2b9c0249a884471babd9c5e99fdc05d7&#45;&gt;79252803615f42539ead456733fc8465</title>
<path fill="none" stroke="#7b8894" d="M200.05,-370.03C200.05,-378.08 200.05,-383.5 200.05,-383.5 200.05,-383.5 272.23,-383.5 272.23,-383.5"/>
<polygon fill="#7b8894" stroke="#7b8894" points="272.23,-387 282.23,-383.5 272.23,-380 272.23,-387"/>
</g>
<!-- 912c80d64b294f4c9f0f5b73f7e72b50&#45;&gt;dced169e1c59418fb323d80911710903 -->
<g id="edge21" class="edge">
<title>912c80d64b294f4c9f0f5b73f7e72b50&#45;&gt;dced169e1c59418fb323d80911710903</title>
<path fill="none" stroke="#7b8894" d="M149.99,-89.9C140.28,-89.9 133.05,-89.9 133.05,-89.9 133.05,-89.9 133.05,-351.4 133.05,-351.4 133.05,-351.4 128.09,-351.4 128.09,-351.4"/>
<polygon fill="#7b8894" stroke="#7b8894" points="128.09,-347.9 118.09,-351.4 128.09,-354.9 128.09,-347.9"/>
</g>
<!-- 912c80d64b294f4c9f0f5b73f7e72b50&#45;&gt;55992e9fd4b34a58aa7a0e66446fdb8b -->
<g id="edge22" class="edge">
<title>912c80d64b294f4c9f0f5b73f7e72b50&#45;&gt;55992e9fd4b34a58aa7a0e66446fdb8b</title>
<path fill="none" stroke="#7b8894" d="M200.05,-158.23C200.05,-176.61 200.05,-191.5 200.05,-191.5 200.05,-191.5 128.06,-191.5 128.06,-191.5"/>
<polygon fill="#7b8894" stroke="#7b8894" points="128.06,-188 118.06,-191.5 128.06,-195 128.06,-188"/>
</g>
<!-- 912c80d64b294f4c9f0f5b73f7e72b50&#45;&gt;79252803615f42539ead456733fc8465 -->
<g id="edge19" class="edge">
<title>912c80d64b294f4c9f0f5b73f7e72b50&#45;&gt;79252803615f42539ead456733fc8465</title>
<path fill="none" stroke="#7b8894" d="M250.43,-142.9C282.1,-142.9 317.05,-142.9 317.05,-142.9 317.05,-142.9 317.05,-360.25 317.05,-360.25"/>
<polygon fill="#7b8894" stroke="#7b8894" points="313.55,-360.25 317.05,-370.25 320.55,-360.25 313.55,-360.25"/>
</g>
</g>
</svg>
